<!-- Inline SVG logo with text color changed to white -->
<svg width="350" height="80" viewBox="0 0 350 80" fill="none" xmlns="http://www.w3.org/2000/svg">
  <g id="Logo">
    <!-- Wrench-Hand Symbol (Based on provided image) -->
    <g fill="#EC781E">
      <!-- Hand holding wrench -->
      <path d="M8 35C8 32 10 30 13 30H28C31 30 33 32 33 35V55C33 58 31 60 28 60H13C10 60 8 58 8 55V35Z"/>
      
      <!-- Thumb -->
      <path d="M33 33C33 30 35 28 38 28H43C46 28 48 30 48 33V43C48 46 46 48 43 48H38C35 48 33 46 33 43V33Z"/>
      
      <!-- Fingers gripping wrench -->
      <rect x="10" y="25" width="3" height="10" rx="1.5"/>
      <rect x="15" y="22" width="3" height="13" rx="1.5"/>
      <rect x="20" y="24" width="3" height="11" rx="1.5"/>
      <rect x="25" y="26" width="3" height="9" rx="1.5"/>
      
      <!-- Wrench head (circular) -->
      <circle cx="35" cy="18" r="8" fill="none" stroke="#EC781E" stroke-width="3"/>
      <circle cx="35" cy="18" r="5" fill="none" stroke="#EC781E" stroke-width="2"/>
      
      <!-- Wrench handle -->
      <rect x="32" y="26" width="6" height="20" rx="3"/>
      
      <!-- Wrench jaw -->
      <path d="M27 15L43 15L43 21L40 21L40 18L30 18L30 21L27 21Z"/>
      
      <!-- Additional wrench details -->
      <rect x="29" y="12" width="2" height="4" rx="1"/>
      <rect x="39" y="12" width="2" height="4" rx="1"/>
    </g>

    <!-- White Text (Larger sizes as requested) -->
    <text x="75" y="45" font-family="Inter, sans-serif" font-size="32" font-weight="600" fill="#FFFFFF">IndoSup</text>
    <text x="75" y="60" font-family="Inter, sans-serif" font-size="12" fill="#CCCCCC">Digital Key to Procurement</text>
  </g>
</svg>