<!-- Inline SVG logo with text color changed to white -->
<svg width="350" height="80" viewBox="0 0 350 80" fill="none" xmlns="http://www.w3.org/2000/svg">
  <g id="Logo">
    <!-- Wrench-Hand Symbol -->
    <g fill="#EC781E">
      <!-- Hand base -->
      <path d="M8 45C8 42 10 40 13 40H25C28 40 30 42 30 45V60C30 63 28 65 25 65H13C10 65 8 63 8 60V45Z"/>
      <!-- Thumb -->
      <path d="M30 42C30 39 32 37 35 37H40C43 37 45 39 45 42V50C45 53 43 55 40 55H35C32 55 30 53 30 50V42Z"/>
      <!-- Fingers -->
      <rect x="10" y="32" width="3" height="12" rx="1.5"/>
      <rect x="15" y="28" width="3" height="16" rx="1.5"/>
      <rect x="20" y="30" width="3" height="14" rx="1.5"/>
      <rect x="25" y="32" width="3" height="12" rx="1.5"/>
      
      <!-- Wrench -->
      <path d="M35 20L35 35L32 35L32 20C32 17 34 15 37 15C40 15 42 17 42 20L42 35L39 35L39 20C39 18.5 37.5 17 35 17C33.5 17 32 18.5 32 20"/>
      <!-- Wrench head -->
      <rect x="28" y="15" width="18" height="8" rx="4" fill="none" stroke="#EC781E" stroke-width="2"/>
      <!-- Wrench teeth -->
      <rect x="30" y="12" width="2" height="3"/>
      <rect x="34" y="12" width="2" height="3"/>
      <rect x="38" y="12" width="2" height="3"/>
      <rect x="42" y="12" width="2" height="3"/>
    </g>

    <!-- White Text (Larger sizes as requested) -->
    <text x="75" y="45" font-family="Inter, sans-serif" font-size="32" font-weight="600" fill="#FFFFFF">IndoSup</text>
    <text x="75" y="60" font-family="Inter, sans-serif" font-size="12" fill="#CCCCCC">Digital Key to Procurement</text>
  </g>
</svg>