<svg width="521" height="139" viewBox="0 0 521 139" fill="none" xmlns="http://www.w3.org/2000/svg">
<g clip-path="url(#clip0_259_2)">
<path d="M127.678 97.2954C127.678 97.2954 124.003 98.9612 125.188 103.653C125.188 103.653 132.768 109.288 134.084 103.653C135.4 98.0185 129.854 98.0767 127.678 97.2954Z" fill="#FFA134"/>
<path d="M77.794 137.097C77.274 137.062 76.7688 136.91 76.3162 136.655C75.8636 136.399 75.4754 136.045 75.1806 135.62L28.9159 90.06C28.4948 89.8358 28.1229 89.5312 27.8217 89.1638C27.5204 88.7964 27.2959 88.3736 27.1611 87.9198C27.1333 87.5094 27.2065 87.0985 27.3744 86.7223C27.5422 86.346 27.7998 86.0156 28.125 85.7593L44.1374 70.314C44.1508 70.2963 45.5704 68.4983 47.3109 68.4983C48.0493 68.5177 48.7519 68.8177 49.2725 69.336L53.0327 73.2505L53.6568 73.8598C54.4695 73.432 55.2032 72.8715 55.8271 72.202C56.6696 71.2979 57.3347 70.2468 57.7888 69.1023C58.4236 67.4615 58.7561 65.7215 58.7705 63.9648V51.0653L54.223 46.7646C51.1708 48.1941 47.8357 48.9356 44.4584 48.9357C42.0863 48.9385 39.7302 48.5511 37.4866 47.7893C34.7071 46.8213 32.1362 45.3457 29.9074 43.4392C28.2022 41.6994 26.7398 39.742 25.5588 37.6191C24.3817 35.5608 23.4884 33.3561 22.9026 31.0635C22.2082 28.3352 22.0364 25.5025 22.3961 22.7117C22.4024 22.6773 23.097 19.3184 24.6841 19.3184C25.0842 19.3443 25.4626 19.5074 25.7541 19.7796L33.2654 29.1641L44.3363 26.0362L44.7313 14.1112L32.0831 10.597C32.0599 10.4983 31.5481 8.2011 32.874 7.07764C34.0415 6.46025 35.2615 5.94535 36.52 5.53884C39.501 4.53659 42.6261 4.01697 45.7745 4.00004C49.1463 3.9938 52.4867 4.6409 55.6069 5.90481C58.5075 7.33684 61.0679 9.36111 63.1191 11.844C65.1634 14.2846 66.6671 17.1223 67.5328 20.1738C68.6417 24.3244 68.7886 28.669 67.9626 32.8836L67.9751 32.8792C68.8578 32.6244 76.7865 30.3925 83.1841 30.3925C86.9773 30.3925 89.5372 31.1649 90.7927 32.6852L96.7231 27.0159C97.8358 26.16 99.1827 25.6544 100.589 25.5644C101.272 25.5716 101.943 25.7435 102.544 26.0651C103.144 26.3867 103.656 26.8484 104.036 27.4101L111.152 34.6411L113.524 32.6861C114.101 32.2669 114.8 32.043 115.516 32.0477C116.154 32.0825 116.779 32.2433 117.353 32.5206C117.928 32.7979 118.441 33.1861 118.861 33.6623L125.978 40.3096C126.568 40.7018 127.072 41.2078 127.46 41.7972C127.877 42.4478 128.123 43.1916 128.175 43.9604C128.227 44.7293 128.083 45.4987 127.756 46.1984L136.455 55.3651V59.8625L143.376 66.5097C144.622 67.4251 145.48 68.7658 145.783 70.2716C145.841 70.978 145.744 71.6884 145.5 72.3546C145.255 73.0209 144.869 73.6274 144.367 74.1332L130.723 88.4048L138.63 95.2478C139.649 96.4492 140.383 97.8604 140.78 99.3783C141.167 100.86 141.201 102.411 140.881 103.908C140.396 105.975 139.421 107.898 138.036 109.519C137.11 110.775 135.898 111.799 134.499 112.508C133.1 113.217 131.553 113.592 129.981 113.603C127.357 113.518 124.808 112.713 122.619 111.279L114.711 104.048L114.705 104.055C113.769 104.944 112.763 105.759 111.697 106.491C110.075 107.606 107.669 108.935 105.421 108.935L95.9322 109.13L92.6331 112.049L95.9322 115.488C95.9964 115.541 97.5167 116.81 97.5309 118.268C97.5216 118.641 97.4261 119.008 97.2518 119.339C97.0775 119.67 96.8289 119.958 96.5252 120.18L80.5181 135.62C80.1896 136.037 79.7786 136.382 79.3102 136.636C78.8418 136.89 78.3259 137.047 77.794 137.097ZM77.4953 110.274L69.9296 117.757L77.4953 125.24L85.0611 117.757L77.4953 110.274ZM94.5483 63.5767V63.5829C94.5635 63.8581 94.6892 66.3545 94.5724 69.2707C94.4601 72.1023 94.09 75.9224 92.9674 78.0441L126.374 108.346C127.444 108.778 128.588 109.003 129.744 109.006C130.73 109.018 131.706 108.811 132.6 108.4C133.701 107.866 134.626 107.033 135.267 105.999C135.899 105.164 136.322 104.193 136.502 103.165C136.675 102.181 136.594 101.17 136.267 100.226C135.773 98.9083 134.954 97.7341 133.883 96.8104L128.743 92.1182L122.023 91.5326L113.918 83.5168C112.766 81.5719 112.345 79.2868 112.732 77.0653L103.637 68.2672C102.392 68.0924 101.168 67.797 99.9812 67.3854C98.1774 66.761 95.7708 65.5926 94.5421 63.5732L94.5483 63.5767ZM81.1734 35.5785C76.5361 35.6725 71.9563 36.6145 67.6657 38.3572C67.6577 38.3572 66.8766 38.7778 65.9599 41.7778C65.1111 44.5556 63.9626 50.1843 63.3162 61.2302C63.4346 63.5531 63.285 65.8817 62.8703 68.1711C62.5489 70.0726 61.9101 71.908 60.98 73.6023C60.1202 75.189 58.7888 76.4765 57.1655 77.291L89.4614 108.909L92.7713 105.999C93.2537 105.397 93.8777 104.921 94.5888 104.612C95.3 104.303 96.0768 104.171 96.8515 104.227C97.0004 104.227 97.1573 104.231 97.3187 104.24C97.662 104.26 98.0098 104.283 98.4288 104.311H98.436C99.5853 104.388 100.887 104.475 102.19 104.475C105.132 104.475 107.229 104.027 108.788 103.064L111.951 101.109L90.7918 82.1482L90.7864 82.1614C90.2067 83.224 89.5424 84.2392 88.7998 85.1976C87.7102 86.5882 86.0669 88.2461 84.4307 88.2469C84.2901 88.2471 84.1499 88.2347 84.0116 88.2099C83.7197 88.1922 83.4381 88.0969 83.1964 87.9341C82.9547 87.7713 82.762 87.547 82.6384 87.2849C82.1177 85.9171 83.992 83.5415 84.0116 83.5185C86.0304 81.2247 87.5837 78.5679 88.5867 75.6931C89.5912 72.9137 90.0371 69.967 89.8992 67.0185C89.6694 63.1944 88.5547 59.4736 86.6411 56.1429C86.6197 56.1217 84.527 53.9445 84.8301 52.5653C84.8852 52.3495 84.9958 52.1515 85.1511 51.9905C85.3064 51.8295 85.5011 51.711 85.7164 51.6464C86.0654 51.5085 86.4375 51.437 86.8132 51.4357C88.7142 51.4357 90.1382 53.3237 90.2015 53.4039L98.5055 62.008C100.536 63.2056 102.847 63.861 105.211 63.9101C106.626 63.9114 108.027 63.6212 109.323 63.0581C110.618 62.495 111.782 61.6713 112.738 60.6394L89.4133 37.1826C89.3803 37.1685 86.51 35.5785 81.1717 35.5785H81.1734ZM133.096 63.5759L116.688 79.2205C116.76 79.2901 124.089 86.3448 125.261 86.3448C125.284 86.347 125.308 86.3436 125.33 86.3349C125.352 86.3261 125.371 86.3123 125.386 86.2946C125.971 85.5591 140.853 70.2628 141.002 70.1103L133.096 63.5759ZM124.397 50.0873L116.885 57.3184C117.397 57.9605 117.734 58.7208 117.867 59.5276C117.999 60.3345 117.921 61.1613 117.641 61.9304C117.153 62.9825 116.387 63.8846 115.423 64.5415C114.418 65.2625 113.329 65.8629 112.181 66.3298C110.825 66.8957 109.423 67.3479 107.99 67.6817L116.094 74.3289L131.91 57.5159L124.397 50.0873ZM115.699 36.8924L105.816 46.769L113.627 54.6887L123.608 44.2223L115.699 36.8924ZM54.5199 42.1164C55.2788 42.1084 56.0153 42.3707 56.5948 42.8554C58.9131 44.7708 60.3398 45.7805 60.3505 45.7875V45.7716C60.4397 45.023 61.2538 38.381 62.9203 35.8175C63.4018 35.0768 64.1481 32.2337 64.2212 28.4842C64.3874 24.3904 63.4975 20.3221 61.6354 16.6623C60.255 14.1146 58.174 12.0052 55.6327 10.5776C52.2614 8.82219 48.4868 7.96286 44.6787 8.08382C42.9132 8.0913 41.1501 8.21384 39.401 8.45066L48.4959 11.3828V28.582L31.9877 33.6649L26.158 26.8228C26.5529 29.9366 27.4902 32.9593 28.9284 35.7566C30.1477 38.1753 31.9217 40.2785 34.109 41.8986C36.805 43.7852 40.043 44.7643 43.3448 44.6914C45.9656 44.6508 48.5661 44.2295 51.063 43.4409C52.0623 42.6792 53.2626 42.2187 54.5199 42.1147V42.1164ZM100.084 30.3431L94.5483 35.5794L102.061 43.4409L107.991 38.1623L100.084 30.3431Z" fill="#FFA134"/>
<path d="M158.692 28.5049H172.289V94H158.692V28.5049ZM206.858 54.9429C202.563 54.9429 199.615 56.7646 198.016 60.4082C197.186 62.3337 196.771 64.7923 196.771 67.7842V94H184.152V45.6562H196.372V52.7212C198.001 50.2329 199.541 48.4408 200.993 47.3447C203.599 45.3896 206.902 44.4121 210.901 44.4121C215.908 44.4121 219.995 45.7303 223.165 48.3667C226.364 50.9735 227.964 55.3132 227.964 61.3857V94H214.989V64.5405C214.989 61.993 214.649 60.0379 213.967 58.6753C212.723 56.187 210.353 54.9429 206.858 54.9429ZM283.772 28.5938V94H271.464V87.2905C269.657 90.1639 267.599 92.2523 265.288 93.5557C262.978 94.859 260.104 95.5107 256.668 95.5107C251.01 95.5107 246.241 93.2298 242.36 88.668C238.509 84.0765 236.584 78.1965 236.584 71.0278C236.584 62.7632 238.48 56.2611 242.271 51.5215C246.093 46.7819 251.188 44.4121 257.557 44.4121C260.489 44.4121 263.096 45.0638 265.377 46.3672C267.658 47.641 269.509 49.4183 270.931 51.6992V28.5938H283.772ZM249.647 70.0947C249.647 74.5677 250.536 78.1372 252.313 80.8032C254.061 83.4989 256.727 84.8467 260.312 84.8467C263.896 84.8467 266.621 83.5137 268.487 80.8477C270.354 78.1816 271.287 74.7306 271.287 70.4946C271.287 64.5701 269.791 60.3341 266.799 57.7866C264.962 56.2463 262.829 55.4761 260.4 55.4761C256.698 55.4761 253.972 56.8831 252.225 59.6973C250.507 62.4818 249.647 65.9476 249.647 70.0947ZM335.715 51.6992C339.803 56.8239 341.847 62.8817 341.847 69.8726C341.847 76.9819 339.803 83.0693 335.715 88.1348C331.627 93.1706 325.422 95.6885 317.098 95.6885C308.774 95.6885 302.568 93.1706 298.48 88.1348C294.392 83.0693 292.348 76.9819 292.348 69.8726C292.348 62.8817 294.392 56.8239 298.48 51.6992C302.568 46.5745 308.774 44.0122 317.098 44.0122C325.422 44.0122 331.627 46.5745 335.715 51.6992ZM317.053 54.7207C313.35 54.7207 310.492 56.0389 308.478 58.6753C306.493 61.2821 305.5 65.0145 305.5 69.8726C305.5 74.7306 306.493 78.4779 308.478 81.1143C310.492 83.7507 313.35 85.0688 317.053 85.0688C320.756 85.0688 323.6 83.7507 325.584 81.1143C327.569 78.4779 328.562 74.7306 328.562 69.8726C328.562 65.0145 327.569 61.2821 325.584 58.6753C323.6 56.0389 320.756 54.7207 317.053 54.7207ZM375.75 84.5356C378.979 84.5356 381.6 84.1802 383.615 83.4692C387.436 82.1066 389.347 79.5739 389.347 75.8711C389.347 73.7087 388.399 72.035 386.503 70.8501C384.607 69.6948 381.63 68.6729 377.572 67.7842L370.64 66.229C363.827 64.6886 359.117 63.015 356.51 61.208C352.097 58.1865 349.89 53.4618 349.89 47.0337C349.89 41.1685 352.022 36.2956 356.288 32.415C360.554 28.5345 366.819 26.5942 375.083 26.5942C381.986 26.5942 387.866 28.4308 392.724 32.104C397.611 35.7476 400.174 41.05 400.411 48.0112H387.258C387.021 44.0715 385.303 41.2721 382.104 39.6133C379.971 38.5173 377.32 37.9692 374.15 37.9692C370.625 37.9692 367.811 38.6802 365.708 40.1021C363.605 41.5239 362.553 43.5086 362.553 46.0562C362.553 48.3963 363.59 50.144 365.664 51.2993C366.997 52.0695 369.84 52.973 374.195 54.0098L385.481 56.7202C390.428 57.9051 394.16 59.4899 396.678 61.4746C400.588 64.5553 402.543 69.0135 402.543 74.8491C402.543 80.8328 400.248 85.8094 395.656 89.7788C391.094 93.7186 384.637 95.6885 376.283 95.6885C367.752 95.6885 361.042 93.7482 356.155 89.8677C351.267 85.9575 348.823 80.5959 348.823 73.7827H361.887C362.301 76.7746 363.116 79.0111 364.331 80.4922C366.552 83.1878 370.359 84.5356 375.75 84.5356ZM442.711 87.1572C442.593 87.3053 442.297 87.7497 441.823 88.4902C441.349 89.2308 440.786 89.8825 440.134 90.4453C438.15 92.2227 436.224 93.4372 434.358 94.0889C432.521 94.7406 430.359 95.0664 427.871 95.0664C420.702 95.0664 415.874 92.4893 413.385 87.335C411.993 84.4912 411.297 80.2996 411.297 74.7603V45.5674H424.271V74.7603C424.271 77.5151 424.597 79.5887 425.249 80.981C426.404 83.4396 428.67 84.6689 432.047 84.6689C436.372 84.6689 439.334 82.9212 440.934 79.4258C441.764 77.5299 442.178 75.0269 442.178 71.9165V45.5674H455.02V94H442.711V87.1572ZM507.851 50.7661C511.761 54.9429 513.716 61.0747 513.716 69.1616C513.716 77.6929 511.791 84.195 507.94 88.668C504.119 93.141 499.187 95.3774 493.144 95.3774C489.293 95.3774 486.093 94.4147 483.546 92.4893C482.154 91.4229 480.791 89.8677 479.458 87.8237V113.062H466.928V45.5674H479.058V52.7212C480.421 50.618 481.872 48.9591 483.413 47.7446C486.227 45.5822 489.574 44.501 493.455 44.501C499.112 44.501 503.911 46.5894 507.851 50.7661ZM500.653 69.7837C500.653 66.0513 499.794 62.7484 498.076 59.875C496.387 57.0016 493.632 55.5649 489.811 55.5649C485.22 55.5649 482.065 57.7422 480.347 62.0967C479.458 64.4072 479.014 67.3398 479.014 70.8945C479.014 76.5228 480.51 80.4774 483.501 82.7583C485.279 84.0913 487.382 84.7578 489.811 84.7578C493.336 84.7578 496.017 83.3952 497.854 80.6699C499.72 77.9447 500.653 74.3159 500.653 69.7837Z" fill="white"/>
<path d="M168.27 120.35H161.449V104.516H168.27C169.252 104.53 170.068 104.645 170.72 104.86C171.83 105.225 172.728 105.894 173.416 106.868C173.967 107.656 174.343 108.508 174.544 109.425C174.744 110.342 174.845 111.215 174.845 112.046C174.845 114.152 174.422 115.935 173.577 117.396C172.431 119.365 170.662 120.35 168.27 120.35ZM170.73 108.555C170.222 107.696 169.216 107.266 167.712 107.266H164.661V117.6H167.712C169.273 117.6 170.362 116.83 170.977 115.29C171.314 114.445 171.482 113.439 171.482 112.272C171.482 110.66 171.232 109.421 170.73 108.555ZM180.248 108.641V120.35H177.143V108.641H180.248ZM180.248 104.419V107.244H177.143V104.419H180.248ZM186.532 122.402C186.862 122.681 187.417 122.821 188.197 122.821C189.3 122.821 190.038 122.452 190.41 121.714C190.654 121.241 190.775 120.447 190.775 119.329V118.577C190.482 119.079 190.167 119.455 189.83 119.705C189.221 120.171 188.43 120.404 187.456 120.404C185.952 120.404 184.749 119.877 183.847 118.824C182.951 117.765 182.504 116.332 182.504 114.528C182.504 112.787 182.937 111.326 183.804 110.145C184.67 108.956 185.898 108.362 187.488 108.362C188.075 108.362 188.587 108.451 189.024 108.63C189.769 108.938 190.371 109.504 190.829 110.327V108.641H193.805V119.748C193.805 121.259 193.55 122.398 193.042 123.164C192.168 124.482 190.492 125.141 188.015 125.141C186.518 125.141 185.297 124.847 184.351 124.26C183.406 123.673 182.883 122.795 182.783 121.628H186.113C186.199 121.986 186.339 122.244 186.532 122.402ZM186.016 116.354C186.432 117.342 187.177 117.836 188.251 117.836C188.967 117.836 189.572 117.568 190.066 117.031C190.56 116.486 190.807 115.623 190.807 114.442C190.807 113.332 190.571 112.487 190.099 111.906C189.633 111.326 189.006 111.036 188.219 111.036C187.144 111.036 186.403 111.541 185.995 112.551C185.78 113.088 185.673 113.751 185.673 114.538C185.673 115.219 185.787 115.824 186.016 116.354ZM199.82 108.641V120.35H196.716V108.641H199.82ZM199.82 104.419V107.244H196.716V104.419H199.82ZM208.156 118.169V120.457L206.706 120.511C205.259 120.561 204.271 120.31 203.741 119.759C203.397 119.408 203.225 118.867 203.225 118.137V110.929H201.593V108.748H203.225V105.483H206.255V108.748H208.156V110.929H206.255V117.116C206.255 117.596 206.316 117.897 206.437 118.019C206.559 118.133 206.932 118.191 207.555 118.191C207.648 118.191 207.744 118.191 207.845 118.191C207.952 118.184 208.056 118.176 208.156 118.169ZM210.562 109.908C211.372 108.877 212.761 108.362 214.73 108.362C216.012 108.362 217.151 108.616 218.146 109.124C219.142 109.633 219.64 110.592 219.64 112.003V117.374C219.64 117.747 219.647 118.198 219.661 118.728C219.682 119.129 219.743 119.401 219.844 119.544C219.944 119.687 220.094 119.806 220.295 119.899V120.35H216.965C216.872 120.114 216.807 119.892 216.771 119.684C216.736 119.476 216.707 119.24 216.685 118.975C216.263 119.433 215.776 119.823 215.224 120.146C214.566 120.525 213.821 120.715 212.99 120.715C211.93 120.715 211.053 120.414 210.358 119.813C209.671 119.204 209.327 118.345 209.327 117.235C209.327 115.795 209.882 114.753 210.992 114.109C211.601 113.758 212.496 113.507 213.678 113.357L214.72 113.228C215.285 113.156 215.69 113.067 215.933 112.959C216.37 112.773 216.589 112.483 216.589 112.089C216.589 111.609 216.42 111.28 216.084 111.101C215.754 110.915 215.267 110.822 214.623 110.822C213.9 110.822 213.388 111.001 213.087 111.359C212.872 111.624 212.729 111.982 212.657 112.433H209.703C209.767 111.409 210.054 110.567 210.562 109.908ZM212.84 118.137C213.126 118.373 213.477 118.491 213.892 118.491C214.551 118.491 215.156 118.298 215.708 117.911C216.266 117.525 216.557 116.819 216.578 115.795V114.656C216.385 114.778 216.188 114.878 215.987 114.957C215.794 115.029 215.525 115.097 215.182 115.161L214.494 115.29C213.849 115.405 213.388 115.545 213.108 115.709C212.636 115.989 212.399 116.422 212.399 117.009C212.399 117.532 212.546 117.908 212.84 118.137ZM222.432 104.516H225.494V120.35H222.432V104.516ZM248.891 120.35H244.637L239.749 113.432L238.17 115.054V120.35H234.915V104.516H238.17V111.036L244.282 104.516H248.557L242.069 111.036L248.891 120.35ZM260.535 116.912C260.456 117.607 260.095 118.312 259.45 119.029C258.447 120.167 257.044 120.737 255.239 120.737C253.75 120.737 252.435 120.257 251.297 119.297C250.158 118.337 249.589 116.776 249.589 114.614C249.589 112.587 250.101 111.033 251.125 109.951C252.156 108.87 253.492 108.329 255.132 108.329C256.106 108.329 256.983 108.512 257.764 108.877C258.544 109.242 259.189 109.819 259.697 110.607C260.155 111.301 260.453 112.107 260.589 113.024C260.668 113.561 260.7 114.334 260.685 115.344H252.672C252.715 116.518 253.084 117.342 253.778 117.815C254.201 118.108 254.709 118.255 255.304 118.255C255.934 118.255 256.446 118.076 256.84 117.718C257.055 117.525 257.244 117.256 257.409 116.912H260.535ZM257.506 113.324C257.456 112.515 257.209 111.903 256.765 111.488C256.328 111.065 255.783 110.854 255.132 110.854C254.423 110.854 253.871 111.076 253.477 111.52C253.091 111.964 252.847 112.565 252.747 113.324H257.506ZM267.517 117.278L269.934 108.641H273.189L269.172 120.156C268.398 122.377 267.786 123.752 267.335 124.281C266.884 124.819 265.981 125.087 264.628 125.087C264.356 125.087 264.137 125.084 263.973 125.076C263.808 125.076 263.561 125.066 263.231 125.044V122.595L263.618 122.616C263.919 122.631 264.205 122.62 264.477 122.584C264.75 122.548 264.979 122.466 265.165 122.337C265.344 122.215 265.509 121.961 265.659 121.574C265.817 121.188 265.881 120.951 265.852 120.865L261.556 108.641H264.961L267.517 117.278ZM286.488 118.169V120.457L285.038 120.511C283.591 120.561 282.603 120.31 282.073 119.759C281.729 119.408 281.557 118.867 281.557 118.137V110.929H279.925V108.748H281.557V105.483H284.587V108.748H286.488V110.929H284.587V117.116C284.587 117.596 284.648 117.897 284.769 118.019C284.891 118.133 285.264 118.191 285.887 118.191C285.98 118.191 286.076 118.191 286.177 118.191C286.284 118.184 286.388 118.176 286.488 118.169ZM298.219 110.123C299.207 111.362 299.701 112.827 299.701 114.517C299.701 116.236 299.207 117.707 298.219 118.932C297.23 120.149 295.73 120.758 293.718 120.758C291.705 120.758 290.205 120.149 289.217 118.932C288.228 117.707 287.734 116.236 287.734 114.517C287.734 112.827 288.228 111.362 289.217 110.123C290.205 108.884 291.705 108.265 293.718 108.265C295.73 108.265 297.23 108.884 298.219 110.123ZM293.707 110.854C292.812 110.854 292.121 111.172 291.634 111.81C291.154 112.44 290.914 113.342 290.914 114.517C290.914 115.691 291.154 116.597 291.634 117.235C292.121 117.872 292.812 118.191 293.707 118.191C294.602 118.191 295.29 117.872 295.769 117.235C296.249 116.597 296.489 115.691 296.489 114.517C296.489 113.342 296.249 112.44 295.769 111.81C295.29 111.172 294.602 110.854 293.707 110.854ZM314.998 114.656H311.636V120.35H308.349V104.516H315.245C316.835 104.516 318.102 104.924 319.048 105.74C319.993 106.557 320.466 107.821 320.466 109.532C320.466 111.402 319.993 112.723 319.048 113.496C318.102 114.27 316.752 114.656 314.998 114.656ZM316.545 111.359C316.974 110.979 317.189 110.378 317.189 109.554C317.189 108.73 316.971 108.143 316.534 107.792C316.104 107.441 315.499 107.266 314.719 107.266H311.636V111.928H314.719C315.499 111.928 316.108 111.738 316.545 111.359ZM328.587 111.466C327.355 111.466 326.528 111.867 326.105 112.669C325.869 113.12 325.751 113.815 325.751 114.753V120.35H322.668V108.641H325.59V110.682C326.062 109.901 326.474 109.368 326.825 109.081C327.398 108.601 328.143 108.362 329.059 108.362C329.117 108.362 329.163 108.365 329.199 108.372C329.242 108.372 329.332 108.376 329.468 108.383V111.52C329.274 111.498 329.102 111.484 328.952 111.477C328.802 111.47 328.68 111.466 328.587 111.466ZM341.037 110.123C342.025 111.362 342.519 112.827 342.519 114.517C342.519 116.236 342.025 117.707 341.037 118.932C340.049 120.149 338.548 120.758 336.536 120.758C334.524 120.758 333.023 120.149 332.035 118.932C331.047 117.707 330.553 116.236 330.553 114.517C330.553 112.827 331.047 111.362 332.035 110.123C333.023 108.884 334.524 108.265 336.536 108.265C338.548 108.265 340.049 108.884 341.037 110.123ZM336.525 110.854C335.63 110.854 334.939 111.172 334.452 111.81C333.972 112.44 333.732 113.342 333.732 114.517C333.732 115.691 333.972 116.597 334.452 117.235C334.939 117.872 335.63 118.191 336.525 118.191C337.42 118.191 338.108 117.872 338.588 117.235C339.068 116.597 339.307 115.691 339.307 114.517C339.307 113.342 339.068 112.44 338.588 111.81C338.108 111.172 337.42 110.854 336.525 110.854ZM354.851 112.841H351.715C351.657 112.404 351.511 112.01 351.274 111.659C350.931 111.187 350.397 110.95 349.674 110.95C348.642 110.95 347.937 111.462 347.557 112.487C347.357 113.031 347.257 113.754 347.257 114.656C347.257 115.516 347.357 116.207 347.557 116.73C347.923 117.704 348.61 118.191 349.62 118.191C350.336 118.191 350.845 117.997 351.145 117.611C351.446 117.224 351.629 116.723 351.693 116.107H354.819C354.748 117.038 354.411 117.919 353.809 118.749C352.85 120.088 351.428 120.758 349.545 120.758C347.661 120.758 346.276 120.199 345.388 119.082C344.5 117.965 344.056 116.515 344.056 114.732C344.056 112.719 344.546 111.155 345.527 110.037C346.508 108.92 347.862 108.362 349.588 108.362C351.056 108.362 352.255 108.691 353.186 109.35C354.125 110.009 354.68 111.172 354.851 112.841ZM364.476 118.696C364.448 118.731 364.376 118.839 364.262 119.018C364.147 119.197 364.011 119.354 363.853 119.49C363.374 119.92 362.908 120.214 362.457 120.371C362.013 120.529 361.49 120.608 360.889 120.608C359.155 120.608 357.988 119.985 357.387 118.739C357.05 118.051 356.882 117.038 356.882 115.698V108.641H360.018V115.698C360.018 116.365 360.097 116.866 360.255 117.202C360.534 117.797 361.082 118.094 361.898 118.094C362.944 118.094 363.66 117.671 364.047 116.826C364.247 116.368 364.348 115.763 364.348 115.011V108.641H367.452V120.35H364.476V118.696ZM376.304 111.466C375.072 111.466 374.245 111.867 373.822 112.669C373.586 113.12 373.468 113.815 373.468 114.753V120.35H370.385V108.641H373.307V110.682C373.779 109.901 374.191 109.368 374.542 109.081C375.115 108.601 375.86 108.362 376.776 108.362C376.834 108.362 376.88 108.365 376.916 108.372C376.959 108.372 377.048 108.376 377.184 108.383V111.52C376.991 111.498 376.819 111.484 376.669 111.477C376.518 111.47 376.397 111.466 376.304 111.466ZM389.012 116.912C388.933 117.607 388.571 118.312 387.927 119.029C386.924 120.167 385.52 120.737 383.716 120.737C382.226 120.737 380.912 120.257 379.773 119.297C378.635 118.337 378.065 116.776 378.065 114.614C378.065 112.587 378.577 111.033 379.601 109.951C380.633 108.87 381.968 108.329 383.608 108.329C384.582 108.329 385.46 108.512 386.24 108.877C387.021 109.242 387.665 109.819 388.174 110.607C388.632 111.301 388.929 112.107 389.065 113.024C389.144 113.561 389.176 114.334 389.162 115.344H381.148C381.191 116.518 381.56 117.342 382.255 117.815C382.677 118.108 383.186 118.255 383.78 118.255C384.41 118.255 384.922 118.076 385.316 117.718C385.531 117.525 385.721 117.256 385.886 116.912H389.012ZM385.982 113.324C385.932 112.515 385.685 111.903 385.241 111.488C384.804 111.065 384.26 110.854 383.608 110.854C382.899 110.854 382.348 111.076 381.954 111.52C381.567 111.964 381.324 112.565 381.224 113.324H385.982ZM397.809 111.864C397.552 111.298 397.047 111.015 396.295 111.015C395.421 111.015 394.834 111.298 394.533 111.864C394.368 112.186 394.286 112.666 394.286 113.303V120.35H391.182V108.662H394.157V110.37C394.537 109.762 394.895 109.328 395.231 109.071C395.826 108.612 396.596 108.383 397.541 108.383C398.436 108.383 399.159 108.58 399.711 108.974C400.155 109.339 400.491 109.808 400.721 110.381C401.122 109.694 401.619 109.189 402.214 108.866C402.844 108.544 403.546 108.383 404.319 108.383C404.835 108.383 405.343 108.483 405.845 108.684C406.346 108.884 406.801 109.235 407.209 109.737C407.538 110.145 407.76 110.646 407.875 111.24C407.946 111.634 407.982 112.211 407.982 112.97L407.961 120.35H404.824V112.895C404.824 112.451 404.752 112.086 404.609 111.799C404.337 111.255 403.836 110.983 403.105 110.983C402.26 110.983 401.677 111.334 401.354 112.035C401.19 112.408 401.107 112.855 401.107 113.378V120.35H398.024V113.378C398.024 112.684 397.953 112.179 397.809 111.864ZM420.83 116.912C420.751 117.607 420.39 118.312 419.745 119.029C418.742 120.167 417.339 120.737 415.534 120.737C414.044 120.737 412.73 120.257 411.592 119.297C410.453 118.337 409.884 116.776 409.884 114.614C409.884 112.587 410.396 111.033 411.42 109.951C412.451 108.87 413.787 108.329 415.427 108.329C416.401 108.329 417.278 108.512 418.058 108.877C418.839 109.242 419.484 109.819 419.992 110.607C420.45 111.301 420.748 112.107 420.884 113.024C420.962 113.561 420.995 114.334 420.98 115.344H412.967C413.01 116.518 413.378 117.342 414.073 117.815C414.496 118.108 415.004 118.255 415.599 118.255C416.229 118.255 416.741 118.076 417.135 117.718C417.349 117.525 417.539 117.256 417.704 116.912H420.83ZM417.801 113.324C417.751 112.515 417.503 111.903 417.059 111.488C416.623 111.065 416.078 110.854 415.427 110.854C414.718 110.854 414.166 111.076 413.772 111.52C413.386 111.964 413.142 112.565 413.042 113.324H417.801ZM428.564 110.907C427.526 110.907 426.813 111.348 426.427 112.229C426.226 112.694 426.126 113.289 426.126 114.012V120.35H423.075V108.662H426.029V110.37C426.423 109.769 426.795 109.336 427.146 109.071C427.777 108.598 428.575 108.362 429.542 108.362C430.752 108.362 431.74 108.68 432.507 109.318C433.28 109.948 433.667 110.997 433.667 112.465V120.35H430.53V113.228C430.53 112.612 430.448 112.139 430.283 111.81C429.982 111.208 429.409 110.907 428.564 110.907ZM441.863 118.169V120.457L440.413 120.511C438.966 120.561 437.978 120.31 437.448 119.759C437.104 119.408 436.932 118.867 436.932 118.137V110.929H435.3V108.748H436.932V105.483H439.962V108.748H441.863V110.929H439.962V117.116C439.962 117.596 440.023 117.897 440.144 118.019C440.266 118.133 440.639 118.191 441.262 118.191C441.355 118.191 441.451 118.191 441.552 118.191C441.659 118.184 441.763 118.176 441.863 118.169Z" fill="white"/>
</g>
<defs>
<clipPath id="clip0_259_2">
<rect width="521" height="139" fill="white"/>
</clipPath>
</defs>
</svg>
